
<svg xmlns="http://www.w3.org/2000/svg" width="32px" height="32px"  viewBox="0 0 24 24"><path d="M18.435,3.06H5.565c-1.38,0-2.5,1.12-2.5,2.5v8.88c0,1.37,1.12,2.5,2.5,2.5h2.91l-0.37,3h-1.11
                c-0.64,0-0.65,1,0,1h10.01c0.65,0,0.65-1,0-1h-1.11l-0.37-3h2.91c1.38,0,2.5-1.13,2.5-2.5V5.56C20.935,4.18,19.815,3.06,18.435,3.06
                z M14.895,19.94h-5.78l0.37-3h5.03L14.895,19.94z M19.935,14.44c0,0.82-0.67,1.5-1.5,1.5H5.565c-0.83,0-1.5-0.68-1.5-1.5V5.56
                c0-0.82,0.67-1.5,1.5-1.5h12.87c0.83,0,1.5,0.68,1.5,1.5V14.44z"/></svg>